<mxfile host="app.diagrams.net" agent="Mozilla/5.0 (Windows NT 10.0; Win64; x64) AppleWebKit/537.36 (KHTML, like Gecko) Chrome/134.0.0.0 Safari/537.36" version="26.1.1">
  <diagram name="PÃ¡gina-1" id="5o_y-S7AwfuH0nFiwbJT">
    <mxGraphModel grid="1" page="1" gridSize="10" guides="1" tooltips="1" connect="1" arrows="1" fold="1" pageScale="1" pageWidth="827" pageHeight="1169" math="0" shadow="0">
      <root>
        <mxCell id="0" />
        <mxCell id="1" parent="0" />
        <mxCell id="yc97bt-qT2PNplW1vv4X-6" style="edgeStyle=orthogonalEdgeStyle;rounded=0;orthogonalLoop=1;jettySize=auto;html=1;entryX=0.5;entryY=0;entryDx=0;entryDy=0;" edge="1" parent="1" source="yc97bt-qT2PNplW1vv4X-1" target="yc97bt-qT2PNplW1vv4X-2">
          <mxGeometry relative="1" as="geometry" />
        </mxCell>
        <mxCell id="yc97bt-qT2PNplW1vv4X-1" value="inicio" style="ellipse;whiteSpace=wrap;html=1;fillColor=#d5e8d4;strokeColor=#82b366;" vertex="1" parent="1">
          <mxGeometry x="354" y="50" width="120" height="80" as="geometry" />
        </mxCell>
        <mxCell id="yc97bt-qT2PNplW1vv4X-7" style="edgeStyle=orthogonalEdgeStyle;rounded=0;orthogonalLoop=1;jettySize=auto;html=1;exitX=0.5;exitY=1;exitDx=0;exitDy=0;entryX=0.5;entryY=0;entryDx=0;entryDy=0;" edge="1" parent="1" source="yc97bt-qT2PNplW1vv4X-2" target="yc97bt-qT2PNplW1vv4X-5">
          <mxGeometry relative="1" as="geometry" />
        </mxCell>
        <mxCell id="yc97bt-qT2PNplW1vv4X-2" value="valor, qtde" style="shape=parallelogram;perimeter=parallelogramPerimeter;whiteSpace=wrap;html=1;fixedSize=1;fillColor=#f9f7ed;strokeColor=#36393d;" vertex="1" parent="1">
          <mxGeometry x="354" y="200" width="120" height="60" as="geometry" />
        </mxCell>
        <mxCell id="yc97bt-qT2PNplW1vv4X-9" style="edgeStyle=orthogonalEdgeStyle;rounded=0;orthogonalLoop=1;jettySize=auto;html=1;" edge="1" parent="1" source="yc97bt-qT2PNplW1vv4X-3" target="yc97bt-qT2PNplW1vv4X-4">
          <mxGeometry relative="1" as="geometry" />
        </mxCell>
        <mxCell id="yc97bt-qT2PNplW1vv4X-3" value="comissao" style="shape=document;whiteSpace=wrap;html=1;boundedLbl=1;fillColor=#f9f7ed;strokeColor=#36393d;" vertex="1" parent="1">
          <mxGeometry x="354" y="480" width="120" height="80" as="geometry" />
        </mxCell>
        <mxCell id="yc97bt-qT2PNplW1vv4X-4" value="fim" style="ellipse;whiteSpace=wrap;html=1;aspect=fixed;fillColor=#e51400;strokeColor=#B20000;fontColor=#ffffff;" vertex="1" parent="1">
          <mxGeometry x="374" y="640" width="80" height="80" as="geometry" />
        </mxCell>
        <mxCell id="yc97bt-qT2PNplW1vv4X-8" style="edgeStyle=orthogonalEdgeStyle;rounded=0;orthogonalLoop=1;jettySize=auto;html=1;entryX=0.5;entryY=0;entryDx=0;entryDy=0;" edge="1" parent="1" source="yc97bt-qT2PNplW1vv4X-5" target="yc97bt-qT2PNplW1vv4X-3">
          <mxGeometry relative="1" as="geometry" />
        </mxCell>
        <mxCell id="yc97bt-qT2PNplW1vv4X-5" value="venda= valor*qtde&lt;div&gt;comissao= (venda *5)/100&lt;/div&gt;" style="rounded=0;whiteSpace=wrap;html=1;fillColor=#f9f7ed;strokeColor=#36393d;" vertex="1" parent="1">
          <mxGeometry x="342" y="340" width="144" height="60" as="geometry" />
        </mxCell>
      </root>
    </mxGraphModel>
  </diagram>
</mxfile>
